#define koko_width 234
#define koko_height 242
static unsigned char koko_bits[] = {
   0x00, 0x00, 0x00, 0x00, 0x00, 0x00, 0x00, 0x3c, 0x00, 0xf8, 0x00, 0x00,
   0x00, 0x50, 0x07, 0x00, 0x00, 0x7c, 0x00, 0x00, 0x00, 0x00, 0x00, 0x00,
   0x00, 0x00, 0x00, 0x00, 0x00, 0x00, 0x00, 0x00, 0x00, 0x00, 0x00, 0x00,
   0x00, 0x3c, 0x00, 0x7c, 0x00, 0x00, 0x00, 0x80, 0x07, 0x00, 0x00, 0xfc,
   0x00, 0x00, 0x00, 0x00, 0x00, 0x00, 0x00, 0x00, 0x00, 0x00, 0x00, 0x00,
   0x00, 0x00, 0x00, 0x00, 0x00, 0x00, 0x00, 0x3c, 0x00, 0x3e, 0x00, 0x00,
   0x00, 0xd0, 0x03, 0x00, 0x00, 0xfc, 0x00, 0x00, 0x00, 0x00, 0x00, 0x00,
   0x00, 0x00, 0x00, 0x00, 0x00, 0x00, 0x00, 0x00, 0x00, 0x00, 0x00, 0x00,
   0x00, 0x3c, 0x00, 0x1f, 0x00, 0x00, 0x00, 0x80, 0x03, 0x00, 0x00, 0xf8,
   0x00, 0x00, 0x00, 0x00, 0x00, 0x00, 0x00, 0x00, 0x00, 0x00, 0x00, 0x00,
   0x00, 0x00, 0x00, 0x00, 0x00, 0x00, 0x00, 0x1e, 0x80, 0x0f, 0x00, 0x00,
   0x00, 0xd0, 0x03, 0x00, 0x00, 0xfc, 0x00, 0x00, 0x00, 0x00, 0x00, 0x00,
   0x00, 0x00, 0x00, 0x00, 0x00, 0x00, 0x00, 0x00, 0x00, 0x00, 0x00, 0x00,
   0x00, 0x1e, 0x80, 0x07, 0x00, 0x00, 0x00, 0xc0, 0x03, 0x00, 0x00, 0xf8,
   0xc1, 0x0f, 0x00, 0x00, 0x18, 0x00, 0x00, 0x00, 0x00, 0x00, 0x00, 0x00,
   0x00, 0x00, 0x00, 0x00, 0x00, 0x00, 0x00, 0x1e, 0xc0, 0x03, 0x00, 0x00,
   0x00, 0xd4, 0x03, 0x00, 0x00, 0xf4, 0x81, 0x1f, 0x00, 0x00, 0x38, 0x00,
   0x00, 0x00, 0x00, 0x00, 0x00, 0x00, 0x00, 0x00, 0x00, 0x00, 0x00, 0x00,
   0x00, 0x1e, 0xe0, 0x01, 0x00, 0x00, 0x00, 0xc0, 0x01, 0x00, 0x00, 0xf0,
   0x01, 0x7f, 0x00, 0x00, 0x78, 0x00, 0x00, 0x00, 0x00, 0x00, 0x00, 0x00,
   0x00, 0x00, 0x00, 0x00, 0x00, 0x00, 0x00, 0x1e, 0xe0, 0x00, 0x00, 0x00,
   0x00, 0xf4, 0x01, 0x00, 0x00, 0xf5, 0x01, 0xff, 0x01, 0x00, 0xf8, 0x00,
   0x00, 0x00, 0x00, 0x00, 0x00, 0x00, 0x00, 0x00, 0x00, 0x00, 0x00, 0x00,
   0x00, 0x1e, 0xf0, 0x00, 0x00, 0x00, 0x00, 0xe0, 0x01, 0x00, 0x00, 0xf0,
   0x03, 0xfe, 0x03, 0x00, 0xf8, 0x00, 0x00, 0x00, 0x00, 0x00, 0x00, 0x00,
   0x00, 0x00, 0x00, 0x00, 0x00, 0x00, 0x00, 0x1e, 0x70, 0x00, 0x00, 0x00,
   0x00, 0xf4, 0x01, 0x00, 0x00, 0xf5, 0x03, 0xde, 0x07, 0x00, 0xf8, 0x01,
   0x00, 0x00, 0x00, 0x00, 0x00, 0x00, 0x00, 0x00, 0x00, 0x00, 0x00, 0x00,
   0x00, 0x1e, 0x78, 0x00, 0x00, 0x00, 0x00, 0xf0, 0x01, 0x00, 0x00, 0xe0,
   0x03, 0x9e, 0x0f, 0x00, 0xfc, 0x01, 0x00, 0x00, 0x00, 0x00, 0x00, 0x00,
   0x00, 0x00, 0x00, 0x00, 0x00, 0x00, 0x00, 0x1e, 0x38, 0x00, 0x00, 0x00,
   0x00, 0xf4, 0x01, 0x00, 0x00, 0xf5, 0x03, 0x1e, 0x1f, 0x00, 0xfe, 0x01,
   0x00, 0x00, 0x00, 0x00, 0x00, 0x00, 0x00, 0x00, 0x00, 0x00, 0x00, 0x00,
   0x00, 0x1e, 0x3c, 0x00, 0x00, 0x00, 0x00, 0xf0, 0x00, 0x00, 0x00, 0xe0,
   0x03, 0x0e, 0x1e, 0x00, 0xde, 0x03, 0x00, 0x00, 0x00, 0x00, 0x00, 0x00,
   0x00, 0x00, 0x00, 0x1f, 0x00, 0x00, 0x00, 0x1e, 0x1e, 0x00, 0x00, 0x00,
   0x00, 0xf5, 0x00, 0x00, 0x40, 0xf5, 0x03, 0x0f, 0x3e, 0x00, 0x8f, 0x03,
   0x00, 0x00, 0x00, 0x00, 0x00, 0x00, 0x00, 0x00, 0xc0, 0x3f, 0x00, 0x00,
   0x00, 0x1e, 0x1e, 0x00, 0x00, 0x00, 0x00, 0xf0, 0x00, 0x00, 0x00, 0xe0,
   0x03, 0x0f, 0x3e, 0xc0, 0x87, 0x03, 0x00, 0x00, 0x00, 0x00, 0x00, 0x00,
   0x00, 0x00, 0xe0, 0x7f, 0x00, 0x00, 0x00, 0x1e, 0x0f, 0x00, 0x00, 0x00,
   0x00, 0xfd, 0x00, 0x00, 0x50, 0xf5, 0x83, 0x0f, 0x3e, 0xe0, 0x83, 0x07,
   0x00, 0x00, 0x00, 0x00, 0x00, 0x00, 0x00, 0x00, 0xf0, 0x7f, 0x00, 0x00,
   0x00, 0x1e, 0x07, 0x00, 0x00, 0x00, 0x00, 0xf8, 0x00, 0x00, 0x00, 0xe0,
   0x83, 0x07, 0x7c, 0xf0, 0x81, 0x07, 0x00, 0x00, 0x00, 0x00, 0x00, 0x00,
   0x00, 0x00, 0xf8, 0x7f, 0x00, 0x00, 0x00, 0x9e, 0x07, 0x00, 0x00, 0x00,
   0x00, 0xfd, 0x00, 0x00, 0x54, 0xf5, 0xc3, 0x07, 0x7c, 0xf8, 0x00, 0x07,
   0x00, 0x00, 0x00, 0x00, 0x00, 0x00, 0x00, 0x00, 0xf8, 0xff, 0x00, 0x00,
   0x00, 0xde, 0x03, 0x00, 0x00, 0x00, 0x00, 0xf8, 0x00, 0x00, 0x00, 0xe0,
   0xc3, 0x03, 0x7c, 0x7c, 0x00, 0x07, 0x00, 0x00, 0x00, 0x00, 0x00, 0x00,
   0x00, 0x00, 0xfc, 0xff, 0x00, 0x00, 0x00, 0xfe, 0x01, 0x00, 0x00, 0x00,
   0x40, 0xfd, 0xff, 0xff, 0x55, 0xf5, 0xc3, 0x03, 0x7c, 0x1e, 0x00, 0x07,
   0x00, 0x00, 0x00, 0x00, 0x00, 0x00, 0x00, 0x00, 0xfc, 0xff, 0x00, 0x00,
   0x00, 0xfe, 0x01, 0x00, 0x00, 0x00, 0xf0, 0xff, 0xff, 0xff, 0x3f, 0xe0,
   0xc3, 0x01, 0x78, 0x0f, 0x00, 0x07, 0x00, 0x00, 0x00, 0x00, 0x00, 0x00,
   0x00, 0x00, 0xfc, 0xff, 0x00, 0x00, 0x00, 0xfe, 0x00, 0x00, 0x00, 0x80,
   0xff, 0xff, 0xff, 0xff, 0xff, 0xf7, 0xe3, 0x01, 0xf8, 0x07, 0x00, 0x07,
   0x00, 0x00, 0x00, 0x00, 0x00, 0x00, 0x00, 0x00, 0xfc, 0xff, 0x00, 0x00,
   0x00, 0x7e, 0xe0, 0x03, 0x00, 0xe0, 0xff, 0xff, 0xff, 0xff, 0xff, 0xff,
   0xe3, 0x00, 0xf8, 0x03, 0x00, 0x87, 0xb2, 0x32, 0xb3, 0xeb, 0x0e, 0x00,
   0x00, 0x00, 0xfe, 0xff, 0x01, 0x00, 0x00, 0x3e, 0xf8, 0x00, 0x00, 0xfc,
   0xff, 0x0f, 0x00, 0x00, 0xfe, 0xff, 0xe3, 0x01, 0xfc, 0x01, 0x00, 0x87,
   0xaa, 0xaa, 0xa8, 0xaa, 0x04, 0x00, 0x00, 0x00, 0xfe, 0xff, 0x3f, 0x00,
   0x00, 0x1f, 0x7c, 0x00, 0x00, 0xff, 0x7f, 0x00, 0x00, 0x00, 0xc0, 0xff,
   0xe7, 0x00, 0xfc, 0x00, 0x80, 0x87, 0xa9, 0xa9, 0x8b, 0xa9, 0x04, 0x00,
   0x00, 0x00, 0xfe, 0xff, 0xff, 0x00, 0x80, 0x07, 0x1f, 0x00, 0xc0, 0xff,
   0x0f, 0x00, 0x00, 0x00, 0x00, 0xfc, 0xef, 0x01, 0x7c, 0x00, 0x80, 0x87,
   0xaa, 0x2a, 0xaa, 0x6a, 0x04, 0x00, 0x00, 0x00, 0xfe, 0xff, 0xff, 0x01,
   0xc0, 0xff, 0x0f, 0x00, 0xf0, 0xff, 0x01, 0x00, 0x00, 0x00, 0x00, 0xe0,
   0xff, 0x00, 0x7c, 0x00, 0x80, 0x87, 0x9a, 0x9a, 0x99, 0x2a, 0x04, 0x00,
   0x00, 0x00, 0xfe, 0xff, 0xff, 0x03, 0xe0, 0xff, 0x07, 0x00, 0xfc, 0x7f,
   0x00, 0x00, 0x00, 0x00, 0x00, 0x80, 0xff, 0x05, 0x3c, 0x00, 0x80, 0x07,
   0x00, 0x00, 0x00, 0x00, 0x00, 0x00, 0x00, 0x00, 0xfe, 0xff, 0xff, 0x03,
   0x80, 0xff, 0x07, 0x00, 0xfe, 0x0f, 0x00, 0x00, 0x00, 0x00, 0x00, 0x00,
   0xfe, 0x00, 0x3c, 0x00, 0x80, 0x03, 0x00, 0x00, 0x00, 0x00, 0xc0, 0x03,
   0x00, 0x00, 0xfe, 0xff, 0xff, 0x07, 0x00, 0xf8, 0x03, 0x80, 0xff, 0x03,
   0x00, 0x00, 0x00, 0x00, 0x00, 0x00, 0xf8, 0x15, 0x1e, 0x00, 0xc0, 0x03,
   0x00, 0x00, 0x00, 0xc0, 0xff, 0x03, 0x00, 0x00, 0xfe, 0xff, 0xff, 0x07,
   0x00, 0xf8, 0x03, 0xe0, 0xff, 0x00, 0x00, 0x00, 0x00, 0x00, 0x00, 0x00,
   0xe0, 0x03, 0x1e, 0x00, 0xc0, 0x03, 0x00, 0x00, 0x00, 0xff, 0xff, 0x03,
   0x00, 0x00, 0xfe, 0xff, 0xff, 0x07, 0x00, 0xf8, 0x01, 0xf0, 0x3f, 0x00,
   0x00, 0x00, 0x00, 0x00, 0x00, 0x00, 0xc0, 0x17, 0x1e, 0x00, 0xe0, 0x01,
   0x00, 0x00, 0xfe, 0xff, 0xff, 0x03, 0x00, 0x00, 0xfe, 0xff, 0xff, 0x07,
   0x00, 0xf0, 0x01, 0xf8, 0x1f, 0x00, 0x00, 0x00, 0x00, 0x00, 0x00, 0x00,
   0x80, 0x0f, 0x0f, 0x00, 0xf0, 0x01, 0x00, 0xc0, 0xff, 0xff, 0xff, 0x03,
   0x00, 0x00, 0xfe, 0xff, 0xff, 0x03, 0x00, 0xf0, 0x00, 0xfe, 0x07, 0x00,
   0x00, 0x00, 0x00, 0x00, 0x00, 0x00, 0x00, 0x5f, 0x1f, 0x00, 0xf0, 0x00,
   0x00, 0xfe, 0xff, 0xff, 0xff, 0x03, 0x00, 0x00, 0xfe, 0xff, 0xff, 0x03,
   0x00, 0xf0, 0x00, 0xff, 0x03, 0x00, 0x00, 0x00, 0x00, 0x00, 0x00, 0x00,
   0x00, 0xbe, 0x0f, 0x00, 0x78, 0x00, 0xe0, 0xff, 0xff, 0xe3, 0xff, 0x03,
   0x00, 0x00, 0xfe, 0xff, 0xff, 0x01, 0x00, 0xe0, 0x80, 0xff, 0x00, 0x00,
   0x00, 0x00, 0x00, 0x00, 0x00, 0x00, 0x00, 0xfc, 0x1f, 0x00, 0x7c, 0x00,
   0xfc, 0xff, 0x1f, 0xe0, 0xff, 0x03, 0x00, 0x00, 0xfe, 0xff, 0xff, 0x00,
   0x00, 0xe0, 0xc0, 0x7f, 0x00, 0x00, 0x00, 0x00, 0x00, 0x00, 0x00, 0x00,
   0x00, 0xf8, 0x07, 0x00, 0x3e, 0x80, 0xff, 0xff, 0x03, 0xe0, 0xff, 0x03,
   0x00, 0x00, 0xfc, 0xff, 0x3f, 0x00, 0x00, 0xe0, 0xe0, 0x3f, 0x00, 0x00,
   0x00, 0x00, 0x00, 0x00, 0x00, 0x00, 0x00, 0xf4, 0x17, 0x00, 0x1f, 0xf0,
   0xff, 0x3f, 0x00, 0xc0, 0xff, 0x03, 0x00, 0x00, 0xfc, 0x03, 0x00, 0x00,
   0x00, 0xf0, 0xf0, 0x1f, 0x00, 0x00, 0x00, 0x00, 0x00, 0x00, 0x00, 0x00,
   0x00, 0xe0, 0x07, 0xc0, 0x0f, 0xfc, 0xff, 0x01, 0x00, 0xc0, 0xff, 0x03,
   0x00, 0x00, 0xfc, 0x01, 0x00, 0x00, 0x00, 0xf0, 0xf8, 0x07, 0x00, 0x00,
   0x00, 0x00, 0x00, 0x00, 0x00, 0x00, 0x00, 0xd0, 0x17, 0xe0, 0x07, 0xff,
   0x7f, 0x00, 0x00, 0xc0, 0xff, 0x03, 0x00, 0x00, 0x9c, 0x01, 0x00, 0x00,
   0x00, 0x70, 0xfc, 0x03, 0x00, 0x00, 0x0e, 0x00, 0x00, 0x00, 0x00, 0x00,
   0x00, 0xc0, 0x07, 0xf8, 0xc3, 0xff, 0x07, 0x00, 0x00, 0x80, 0xff, 0x03,
   0x00, 0x00, 0x8c, 0x00, 0x00, 0x00, 0x00, 0x70, 0xfe, 0x01, 0x00, 0x80,
   0x03, 0x00, 0x00, 0x00, 0x00, 0x00, 0x00, 0xd0, 0x57, 0xfd, 0xe1, 0xff,
   0x15, 0x00, 0x00, 0x00, 0xff, 0x03, 0x00, 0x00, 0x2c, 0x00, 0x00, 0x00,
   0x00, 0x38, 0xff, 0x00, 0x00, 0xe0, 0x01, 0x00, 0x00, 0x00, 0x00, 0x00,
   0x00, 0x00, 0x07, 0xff, 0xf9, 0x3f, 0x00, 0x00, 0x00, 0x00, 0xff, 0x03,
   0x00, 0x00, 0x28, 0x00, 0x00, 0x00, 0x00, 0x38, 0x7f, 0x01, 0x00, 0xf0,
   0x00, 0x00, 0x00, 0x00, 0x00, 0x00, 0x00, 0x40, 0xdf, 0xff, 0xff, 0x5f,
   0x05, 0x00, 0x00, 0x00, 0xfe, 0x03, 0x00, 0x00, 0x00, 0x00, 0x00, 0x00,
   0x00, 0xbc, 0x1f, 0x00, 0x00, 0x78, 0x00, 0x00, 0x00, 0x00, 0x00, 0x00,
   0x00, 0x00, 0xfe, 0xff, 0xff, 0x03, 0x00, 0x00, 0x00, 0x00, 0xfc, 0x03,
   0x00, 0x00, 0x00, 0x00, 0x00, 0x00, 0x00, 0xdc, 0x5f, 0x00, 0x00, 0x3c,
   0x00, 0x00, 0x00, 0x00, 0x00, 0x00, 0x00, 0x00, 0xff, 0xd7, 0xff, 0x55,
   0x05, 0x00, 0x00, 0x00, 0xf8, 0x03, 0x00, 0x00, 0x08, 0x00, 0x00, 0x00,
   0x00, 0xfe, 0x07, 0x00, 0x00, 0x1e, 0x00, 0x00, 0x00, 0x00, 0x00, 0x00,
   0x00, 0x00, 0xfc, 0x81, 0x7f, 0x00, 0x00, 0x00, 0x00, 0x00, 0xf0, 0x03,
   0x00, 0x00, 0x08, 0x00, 0x00, 0x00, 0x00, 0xfe, 0x57, 0x01, 0x80, 0x0f,
   0x00, 0x00, 0x00, 0x00, 0x00, 0x00, 0x00, 0x00, 0x15, 0x00, 0xfe, 0x55,
   0x01, 0x00, 0x00, 0x00, 0xe0, 0x03, 0x00, 0x00, 0x00, 0x00, 0x00, 0x00,
   0x00, 0xff, 0x03, 0x00, 0xc0, 0x07, 0x00, 0x00, 0x00, 0x00, 0x00, 0x00,
   0x00, 0x00, 0x00, 0x00, 0xfc, 0x01, 0x00, 0x00, 0x00, 0x00, 0xc0, 0x03,
   0x00, 0x00, 0x00, 0x00, 0x00, 0x00, 0x80, 0xff, 0x55, 0x01, 0xe0, 0x07,
   0x00, 0x00, 0x00, 0x00, 0x00, 0x00, 0x00, 0x00, 0x01, 0x00, 0xf8, 0x57,
   0x01, 0x00, 0x00, 0x00, 0x80, 0x03, 0x00, 0x00, 0x00, 0x00, 0x00, 0x00,
   0x00, 0xfe, 0x00, 0x00, 0xf0, 0x03, 0x00, 0x00, 0x00, 0x7f, 0x00, 0x00,
   0x00, 0x00, 0x00, 0x00, 0xf0, 0x07, 0x00, 0x00, 0x00, 0x00, 0x00, 0x03,
   0x00, 0x00, 0x00, 0x00, 0x00, 0x00, 0xe0, 0xff, 0x57, 0x01, 0xf0, 0x01,
   0x00, 0x00, 0xe0, 0x0f, 0x00, 0x00, 0x00, 0x00, 0x00, 0x00, 0xe0, 0x57,
   0x01, 0x00, 0x00, 0x00, 0x00, 0x02, 0x00, 0x00, 0x00, 0x00, 0x00, 0x00,
   0xfc, 0xff, 0x1f, 0x00, 0xf8, 0x00, 0x00, 0x00, 0xfc, 0x03, 0x00, 0x00,
   0x00, 0x00, 0x00, 0x00, 0xc0, 0x0f, 0x00, 0x00, 0x00, 0x00, 0x00, 0x00,
   0x00, 0x00, 0x00, 0x00, 0x00, 0x00, 0xff, 0xff, 0x7f, 0x05, 0xfc, 0x00,
   0x00, 0x00, 0xff, 0x00, 0x00, 0x00, 0x00, 0x00, 0x00, 0x00, 0x80, 0x5f,
   0x01, 0x00, 0x00, 0x00, 0x00, 0x00, 0x00, 0x00, 0x00, 0x00, 0x00, 0xc0,
   0xff, 0xff, 0xff, 0x00, 0x7c, 0x00, 0x00, 0xc0, 0x1f, 0x00, 0x00, 0x00,
   0x00, 0x00, 0x00, 0x00, 0x00, 0x1f, 0x00, 0x00, 0x00, 0x00, 0x00, 0x00,
   0x00, 0x00, 0x00, 0x00, 0x00, 0xf0, 0xff, 0xda, 0xff, 0x05, 0x3e, 0x00,
   0x00, 0xf0, 0x07, 0x00, 0x00, 0x00, 0x00, 0x00, 0x00, 0x00, 0x00, 0x7f,
   0x01, 0x00, 0x00, 0x00, 0x00, 0x00, 0x3f, 0x00, 0x00, 0x00, 0x00, 0xfc,
   0x3f, 0xba, 0xfc, 0x07, 0x3f, 0x00, 0x00, 0xfc, 0x01, 0x00, 0x00, 0x00,
   0x00, 0x00, 0x00, 0x00, 0x00, 0x7e, 0x00, 0x00, 0x00, 0x00, 0x00, 0x00,
   0xff, 0x03, 0x00, 0x00, 0x00, 0xfe, 0x3f, 0x30, 0xe9, 0xdf, 0x1f, 0x00,
   0x00, 0x7e, 0x00, 0x00, 0x00, 0x00, 0x00, 0x00, 0x00, 0x00, 0x00, 0x7c,
   0x01, 0x00, 0x00, 0x00, 0x00, 0x00, 0xff, 0x1f, 0x00, 0x00, 0x00, 0x7f,
   0x7e, 0x20, 0xd9, 0x8f, 0x0f, 0x00, 0x00, 0x3f, 0x00, 0x00, 0x00, 0x00,
   0x00, 0x00, 0x00, 0x00, 0x00, 0xfc, 0x00, 0x00, 0x00, 0x00, 0x00, 0x00,
   0x80, 0x7f, 0x00, 0x00, 0xc0, 0x3f, 0xff, 0x20, 0x9a, 0xdf, 0x0f, 0x00,
   0xc0, 0x5f, 0x00, 0x00, 0x00, 0x00, 0x00, 0x00, 0x00, 0x00, 0x00, 0xf8,
   0x01, 0x00, 0x00, 0x00, 0x00, 0x00, 0x00, 0xf8, 0x00, 0x00, 0xe0, 0x9f,
   0xfb, 0x00, 0x12, 0xff, 0x07, 0x00, 0xe0, 0x07, 0x00, 0x00, 0x00, 0x00,
   0x00, 0x00, 0x00, 0x00, 0x00, 0xf0, 0x01, 0x00, 0x00, 0x00, 0x00, 0x00,
   0x00, 0xe0, 0x00, 0x00, 0xf8, 0xef, 0xe7, 0x89, 0x10, 0xff, 0x07, 0x00,
   0xf0, 0x57, 0x00, 0x00, 0x00, 0x00, 0x00, 0x00, 0x00, 0x00, 0x00, 0xf0,
   0x01, 0x00, 0x00, 0x00, 0x00, 0x00, 0x00, 0xc0, 0x01, 0x00, 0xfc, 0xf3,
   0xe7, 0x99, 0x00, 0xfe, 0x03, 0x00, 0xf8, 0x61, 0x00, 0x00, 0x00, 0x00,
   0x00, 0x00, 0x00, 0x00, 0x00, 0xe0, 0x03, 0x00, 0x00, 0x00, 0x00, 0x00,
   0x00, 0xc0, 0x01, 0x00, 0xfe, 0xd9, 0xef, 0x93, 0x00, 0xfe, 0x03, 0x00,
   0xfc, 0xe5, 0x00, 0x00, 0x00, 0x00, 0x00, 0x00, 0x00, 0x00, 0x00, 0xc0,
   0x03, 0x00, 0x00, 0x00, 0x00, 0x00, 0x00, 0xc0, 0x01, 0x00, 0xff, 0xcc,
   0xcf, 0xf7, 0x23, 0xff, 0x01, 0x00, 0xff, 0xe0, 0x00, 0x00, 0x00, 0x00,
   0x00, 0x00, 0x00, 0x00, 0x00, 0xc0, 0x07, 0x00, 0x00, 0x00, 0x00, 0x00,
   0x00, 0xc0, 0x00, 0x80, 0x7f, 0xf7, 0xdd, 0xff, 0x67, 0xff, 0x00, 0x80,
   0x7f, 0xe1, 0x01, 0x00, 0x00, 0x00, 0x00, 0x00, 0x00, 0x00, 0x00, 0x80,
   0x07, 0x00, 0x00, 0x00, 0x00, 0x00, 0x00, 0xe0, 0x00, 0x80, 0xbf, 0xfb,
   0xed, 0xff, 0x6f, 0xfe, 0x00, 0xc0, 0x7f, 0xc0, 0x01, 0x00, 0x00, 0x80,
   0x1f, 0x00, 0x00, 0x00, 0x00, 0x80, 0x07, 0x00, 0x00, 0x00, 0x00, 0x00,
   0x55, 0xfd, 0x00, 0xc0, 0xcf, 0xfd, 0xfd, 0xff, 0x7f, 0x7e, 0x00, 0xe0,
   0x7f, 0xc1, 0x03, 0x00, 0x00, 0xe0, 0x3f, 0x00, 0x00, 0x00, 0x00, 0x80,
   0x0f, 0x00, 0x00, 0x00, 0x00, 0x00, 0xff, 0x7f, 0x00, 0xe0, 0xe7, 0xf9,
   0xfe, 0x37, 0xff, 0x3f, 0x00, 0xf0, 0x3f, 0xc0, 0x03, 0x00, 0x00, 0xf8,
   0x03, 0x00, 0x00, 0x00, 0x00, 0x00, 0x0f, 0x00, 0x00, 0x00, 0x00, 0x00,
   0xff, 0xff, 0x01, 0xf0, 0xf7, 0xec, 0xf6, 0x45, 0xfb, 0x3f, 0x00, 0xf8,
   0x5f, 0x80, 0x07, 0x00, 0x00, 0xfe, 0x15, 0x00, 0x00, 0x00, 0x00, 0x00,
   0x0f, 0x00, 0x00, 0x00, 0x00, 0x00, 0xff, 0xff, 0x03, 0xf8, 0xff, 0xc6,
   0xf6, 0x41, 0xda, 0x1f, 0x00, 0xfc, 0x0f, 0x80, 0x07, 0x00, 0x00, 0xff,
   0x00, 0x00, 0x00, 0x00, 0x40, 0x00, 0x0e, 0x00, 0x00, 0x00, 0x00, 0x00,
   0x00, 0xe0, 0x07, 0xf8, 0x7f, 0xc7, 0xf3, 0x80, 0xd4, 0x1f, 0x00, 0xfe,
   0x1f, 0x00, 0x0f, 0x00, 0x80, 0x7f, 0x05, 0x00, 0x00, 0x00, 0x80, 0x01,
   0x1e, 0x00, 0x00, 0x00, 0x00, 0x00, 0x00, 0x00, 0x0f, 0xfc, 0xff, 0xc7,
   0xfb, 0x00, 0xd4, 0x0f, 0x00, 0xff, 0x07, 0x00, 0x1f, 0x00, 0xc0, 0x3f,
   0x00, 0x00, 0x00, 0x00, 0x00, 0x03, 0x1e, 0x00, 0x00, 0x00, 0x00, 0x00,
   0x00, 0x00, 0x1c, 0xfe, 0xe6, 0x83, 0xfb, 0x00, 0xc0, 0x07, 0x80, 0xdf,
   0x17, 0x00, 0x1e, 0x00, 0xc0, 0x7f, 0x01, 0x00, 0x00, 0x00, 0x00, 0x07,
   0x1e, 0x00, 0x00, 0x00, 0x00, 0x00, 0x00, 0x00, 0x38, 0x7e, 0xf2, 0x03,
   0xff, 0x10, 0xe0, 0x07, 0xc0, 0xcf, 0x07, 0x00, 0x3e, 0x00, 0xe0, 0x1f,
   0x00, 0x00, 0x00, 0x00, 0x00, 0x0e, 0x1c, 0x00, 0x00, 0x00, 0x00, 0x00,
   0x00, 0x00, 0x38, 0x7f, 0xfb, 0x03, 0xff, 0x02, 0xe0, 0x03, 0xe0, 0xd7,
   0x17, 0x00, 0x3c, 0x00, 0xf0, 0x5f, 0x01, 0x00, 0x00, 0x00, 0x00, 0x1c,
   0x1c, 0x00, 0x00, 0x00, 0x00, 0x00, 0x00, 0x00, 0x38, 0xbf, 0xfd, 0x01,
   0xfe, 0x13, 0xf0, 0x01, 0xf0, 0xc3, 0x03, 0x00, 0x7c, 0x00, 0xf8, 0x0f,
   0x00, 0x00, 0x00, 0x00, 0x00, 0x3c, 0x1c, 0x00, 0x00, 0x00, 0x00, 0x00,
   0x00, 0x00, 0xb8, 0x9f, 0xfc, 0x01, 0xfc, 0x33, 0xf8, 0x01, 0xf8, 0xf7,
   0x17, 0x00, 0xf8, 0x00, 0xf8, 0x5f, 0x01, 0x00, 0x00, 0x00, 0x00, 0x78,
   0x1c, 0x00, 0x00, 0x00, 0x00, 0x00, 0x00, 0x00, 0xf8, 0xdf, 0xee, 0x01,
   0xf8, 0x27, 0xfa, 0x00, 0xfe, 0xf1, 0x01, 0x00, 0xf0, 0x00, 0xfc, 0x07,
   0x00, 0x00, 0x00, 0x00, 0x00, 0xf8, 0x1c, 0x00, 0x00, 0x00, 0x00, 0x00,
   0x00, 0x00, 0xf8, 0x2f, 0xef, 0x01, 0xf0, 0x6f, 0x7e, 0x00, 0xff, 0xff,
   0x15, 0x00, 0xe0, 0x01, 0xfe, 0x57, 0x01, 0x00, 0x00, 0x00, 0x00, 0xf0,
   0x1c, 0x00, 0x00, 0x00, 0x00, 0x00, 0x00, 0x00, 0xfc, 0x67, 0xf5, 0x01,
   0xe0, 0x7f, 0x7e, 0x80, 0xff, 0xff, 0x01, 0x00, 0xc0, 0x03, 0xfe, 0x07,
   0x00, 0x00, 0x00, 0x00, 0x00, 0xf0, 0x1d, 0x00, 0x00, 0x00, 0x00, 0x00,
   0xff, 0x55, 0xff, 0xf7, 0xfe, 0x01, 0x80, 0xff, 0x3f, 0xc0, 0xff, 0xff,
   0x15, 0x00, 0x80, 0x03, 0xff, 0x57, 0x01, 0x00, 0x00, 0x00, 0x00, 0xe0,
   0x1d, 0x00, 0x00, 0x00, 0x00, 0x00, 0xff, 0xff, 0xff, 0x7f, 0xf7, 0x03,
   0x00, 0xff, 0x3f, 0xe0, 0xff, 0xff, 0x01, 0x00, 0x00, 0x07, 0xff, 0x03,
   0x00, 0x00, 0x00, 0x00, 0x00, 0xe0, 0x3f, 0x00, 0x00, 0x00, 0x00, 0x00,
   0xff, 0xff, 0xff, 0x37, 0xf7, 0x03, 0x00, 0xfe, 0x1f, 0xf8, 0xff, 0xff,
   0x15, 0x00, 0x00, 0x8e, 0xdf, 0x57, 0x01, 0x00, 0x00, 0x00, 0x00, 0xc0,
   0x3f, 0x00, 0x00, 0x00, 0x00, 0x00, 0xff, 0xff, 0xff, 0xf3, 0xf7, 0x03,
   0x00, 0xfc, 0xcf, 0xff, 0xff, 0xc0, 0x03, 0x00, 0x00, 0x80, 0xef, 0x03,
   0x00, 0x00, 0x00, 0x00, 0x00, 0xc0, 0x3f, 0x00, 0x00, 0x00, 0x00, 0x00,
   0x00, 0x00, 0xff, 0x7b, 0xf7, 0x03, 0x00, 0xf0, 0xff, 0xff, 0x5f, 0xd5,
   0x57, 0x00, 0x00, 0xc0, 0xff, 0x57, 0x01, 0x00, 0x00, 0x00, 0x00, 0x80,
   0x3f, 0x00, 0x00, 0x00, 0x00, 0x00, 0x00, 0x00, 0xfe, 0x3d, 0xf3, 0x03,
   0x00, 0xe0, 0xff, 0xff, 0x07, 0x80, 0x03, 0x00, 0x00, 0xe0, 0xe7, 0x03,
   0x00, 0x00, 0x00, 0x00, 0x00, 0x80, 0x3f, 0x00, 0x00, 0x00, 0x00, 0x00,
   0x00, 0x00, 0xfc, 0xb5, 0xf3, 0x07, 0x00, 0xc0, 0xff, 0xff, 0x57, 0xd5,
   0x57, 0x00, 0x00, 0xe0, 0xf7, 0x57, 0x05, 0x00, 0x00, 0x00, 0x00, 0x00,
   0x3f, 0x00, 0x00, 0x00, 0x00, 0x00, 0x00, 0x00, 0xfc, 0xb5, 0xb3, 0x07,
   0x00, 0xc0, 0xff, 0xff, 0x00, 0x80, 0x07, 0x00, 0x00, 0xe0, 0xe3, 0x03,
   0x00, 0x00, 0x00, 0x00, 0x00, 0x00, 0x3f, 0x00, 0x00, 0x00, 0x00, 0x00,
   0x00, 0x00, 0xfc, 0xf9, 0xb3, 0x07, 0x00, 0xc0, 0xff, 0x7f, 0x05, 0x00,
   0x57, 0x00, 0x00, 0xe0, 0xf5, 0x57, 0x05, 0x00, 0x00, 0x00, 0x00, 0x00,
   0x3f, 0x00, 0x00, 0x00, 0x00, 0x00, 0x00, 0x00, 0xfc, 0xf0, 0xff, 0x0f,
   0x00, 0xc0, 0xff, 0x3f, 0x00, 0x00, 0x0f, 0x00, 0x00, 0xf0, 0xe1, 0x03,
   0x00, 0x00, 0x00, 0x00, 0x00, 0x00, 0x3e, 0x00, 0x00, 0x00, 0x00, 0x00,
   0x00, 0x00, 0xfc, 0xf0, 0xff, 0x0f, 0x00, 0xe0, 0xfd, 0x7f, 0x00, 0x00,
   0x5e, 0x01, 0x00, 0xf0, 0xd5, 0x57, 0x05, 0x00, 0x00, 0x00, 0x00, 0x00,
   0x1e, 0x00, 0x00, 0x00, 0x00, 0x02, 0x00, 0x00, 0xfc, 0x3c, 0xfb, 0x1f,
   0x00, 0xe0, 0xf8, 0x1f, 0x00, 0x00, 0x1e, 0x00, 0x00, 0xf0, 0xc0, 0x07,
   0x00, 0x00, 0x00, 0x00, 0x00, 0x00, 0x1e, 0x00, 0x00, 0x00, 0x00, 0x03,
   0x00, 0x00, 0xfc, 0xfc, 0xdf, 0x1f, 0x00, 0xf0, 0xf8, 0x1f, 0x00, 0x00,
   0x7c, 0x05, 0x00, 0x78, 0xd5, 0x57, 0x05, 0x00, 0x00, 0x00, 0x00, 0x00,
   0x3c, 0x00, 0x00, 0x00, 0x80, 0x03, 0x00, 0x00, 0xfe, 0xfc, 0xff, 0x3f,
   0x00, 0x70, 0xfc, 0x1f, 0x00, 0x00, 0x7c, 0x00, 0x00, 0x78, 0xc0, 0x07,
   0x00, 0x00, 0x00, 0x00, 0x00, 0x00, 0x3c, 0x00, 0x00, 0x00, 0xc0, 0x03,
   0x55, 0x55, 0xff, 0xff, 0xff, 0x3f, 0x00, 0x78, 0xfe, 0x1f, 0x00, 0x00,
   0xf8, 0x15, 0x00, 0x3c, 0xd5, 0x5f, 0x05, 0x00, 0x00, 0x00, 0x00, 0x00,
   0x3c, 0x00, 0x00, 0x00, 0xe0, 0x03, 0xff, 0x00, 0xff, 0xff, 0xff, 0x7f,
   0x00, 0x38, 0xfe, 0x1f, 0x00, 0x00, 0xf8, 0x11, 0x00, 0x3c, 0x80, 0x0f,
   0x00, 0x00, 0x00, 0x00, 0x00, 0x00, 0x3c, 0x00, 0x00, 0x00, 0xf0, 0x03,
   0xff, 0xff, 0xff, 0xff, 0xff, 0xff, 0x00, 0x3c, 0xc7, 0x1f, 0x00, 0x00,
   0xf0, 0x37, 0x00, 0x7c, 0xc0, 0x5f, 0x15, 0x00, 0x00, 0x00, 0x00, 0x00,
   0x3c, 0x00, 0x00, 0x00, 0xfc, 0x01, 0xff, 0xff, 0xff, 0x1e, 0xf8, 0xff,
   0x00, 0xbc, 0xfb, 0x1f, 0x00, 0x00, 0xf8, 0x63, 0x00, 0x7c, 0x00, 0x1f,
   0x00, 0x00, 0x00, 0x00, 0x00, 0x00, 0x3c, 0x00, 0x00, 0x00, 0xfe, 0x00,
   0x80, 0xff, 0xfc, 0x1c, 0x00, 0xfc, 0x01, 0x9c, 0xfd, 0x1f, 0x00, 0x00,
   0xf8, 0xf7, 0x00, 0xfe, 0x00, 0x7f, 0x15, 0x00, 0x00, 0x00, 0x00, 0x00,
   0x7c, 0x00, 0x00, 0x00, 0x7f, 0x03, 0x00, 0x38, 0xfc, 0x3c, 0x00, 0xf0,
   0x03, 0xde, 0xed, 0x1f, 0x00, 0x00, 0xfc, 0xcf, 0x00, 0xfe, 0x00, 0x3e,
   0x00, 0x00, 0x00, 0x00, 0x00, 0x00, 0x3c, 0x00, 0x00, 0x80, 0x1f, 0x02,
   0x00, 0x70, 0xfc, 0x7c, 0x00, 0xe0, 0x07, 0xce, 0xf0, 0x3f, 0x00, 0x00,
   0x7e, 0xdf, 0x01, 0xee, 0x00, 0x7e, 0x15, 0x00, 0x00, 0x00, 0x00, 0x00,
   0x7c, 0x01, 0x00, 0xe0, 0x5f, 0x03, 0x00, 0xe0, 0xfc, 0x7f, 0x00, 0x80,
   0x0f, 0xee, 0xf0, 0x3f, 0x00, 0x00, 0x7e, 0xbe, 0x03, 0x0f, 0x00, 0xfc,
   0x00, 0xff, 0xff, 0x7f, 0x00, 0x00, 0x3c, 0x00, 0x00, 0xf8, 0x87, 0x03,
   0x00, 0xe0, 0xfc, 0xff, 0x00, 0x00, 0x0f, 0x7f, 0xf8, 0x3f, 0x00, 0x00,
   0x3f, 0x7c, 0x03, 0x07, 0x00, 0xf8, 0xff, 0xff, 0xff, 0x7f, 0x00, 0x00,
   0x7c, 0x15, 0x00, 0xfe, 0xd5, 0x03, 0x00, 0xe0, 0xfc, 0xff, 0x01, 0x00,
   0x3c, 0x37, 0x7e, 0x7f, 0x00, 0x00, 0x3f, 0xf8, 0x07, 0x07, 0x00, 0xf8,
   0xff, 0xff, 0xff, 0x0f, 0x00, 0x00, 0x3c, 0x00, 0x00, 0xff, 0xc0, 0x03,
   0x00, 0xe0, 0xfc, 0xe5, 0x03, 0x00, 0x38, 0x3f, 0x9f, 0x7f, 0x00, 0x80,
   0x1f, 0xf0, 0x0f, 0x07, 0x00, 0xf0, 0xf7, 0xff, 0x07, 0x00, 0x00, 0x00,
   0x7c, 0x55, 0xd5, 0x7f, 0xe5, 0x01, 0x00, 0xe0, 0xfc, 0xeb, 0x07, 0x00,
   0x80, 0x1f, 0x82, 0xff, 0x00, 0xc0, 0x0f, 0xe0, 0x1f, 0x07, 0x00, 0xf0,
   0x07, 0x00, 0x00, 0x00, 0x00, 0x00, 0x3c, 0x00, 0xf0, 0x3f, 0xe0, 0x00,
   0x00, 0xe0, 0xf8, 0xc3, 0x07, 0x00, 0x80, 0x0f, 0xc0, 0xff, 0x00, 0xc0,
   0x0f, 0xc0, 0xbf, 0x07, 0x00, 0xf8, 0x5f, 0x01, 0x00, 0x00, 0x00, 0x00,
   0x7c, 0x55, 0xfd, 0x5f, 0xf1, 0x00, 0x00, 0xe0, 0xf8, 0x83, 0x0f, 0x00,
   0x80, 0x0f, 0xe0, 0xdd, 0x01, 0xe0, 0x07, 0x00, 0xff, 0x03, 0x00, 0xfc,
   0x1f, 0x00, 0x00, 0x00, 0x00, 0x00, 0x1c, 0x00, 0xff, 0x07, 0x78, 0x00,
   0x00, 0xf0, 0xf8, 0x87, 0x1f, 0x00, 0x80, 0x07, 0xea, 0xee, 0x02, 0xe0,
   0x03, 0x00, 0xfe, 0x03, 0x00, 0xf8, 0x7f, 0x05, 0x00, 0x00, 0x00, 0x00,
   0x5c, 0xd5, 0xff, 0x15, 0x38, 0x00, 0x00, 0x7c, 0xf8, 0x07, 0x7f, 0x00,
   0xc0, 0x07, 0xaa, 0x74, 0x00, 0xf0, 0x01, 0x00, 0xf8, 0x03, 0x00, 0x80,
   0x7f, 0x00, 0x00, 0x00, 0x00, 0x00, 0x1c, 0xf8, 0x7f, 0x00, 0x3c, 0x00,
   0xd5, 0x3f, 0xf8, 0x8f, 0xfe, 0x00, 0xc0, 0x03, 0xaa, 0x34, 0x00, 0xf8,
   0x01, 0x00, 0xf0, 0x03, 0x00, 0xd0, 0xff, 0x05, 0x00, 0x00, 0x00, 0x00,
   0x5c, 0xff, 0x3f, 0x19, 0x1c, 0x00, 0xfc, 0x1f, 0xf0, 0x0f, 0xfc, 0x01,
   0xc0, 0x03, 0x2a, 0x05, 0x00, 0xf8, 0x00, 0x00, 0xc0, 0x00, 0x00, 0xc0,
   0xff, 0x01, 0x00, 0x00, 0x00, 0x00, 0xfe, 0xff, 0x0f, 0x18, 0x1e, 0x00,
   0xff, 0x07, 0xf0, 0x1f, 0xfc, 0x03, 0xc0, 0x01, 0x48, 0x25, 0x00, 0x78,
   0x00, 0x00, 0x00, 0x00, 0x00, 0xe0, 0xff, 0x15, 0x00, 0x00, 0x00, 0x00,
   0xfe, 0xff, 0x57, 0x1c, 0x0e, 0x00, 0xff, 0x0f, 0xf0, 0x3f, 0xf9, 0x07,
   0xe0, 0x01, 0x48, 0xa9, 0x00, 0x70, 0x00, 0x00, 0x00, 0x00, 0x00, 0xe0,
   0xff, 0x03, 0x00, 0x00, 0x00, 0x00, 0xfe, 0xff, 0x01, 0x3c, 0x0f, 0x00,
   0x55, 0x0f, 0xe0, 0xff, 0xfb, 0x0f, 0xe0, 0x01, 0x40, 0xab, 0x01, 0x00,
   0x00, 0x00, 0x00, 0x00, 0x00, 0x70, 0xe7, 0x57, 0x00, 0x00, 0x00, 0x00,
   0xfe, 0x7f, 0x05, 0x3e, 0x07, 0x00, 0x00, 0x1e, 0xe0, 0xff, 0xff, 0x3f,
   0xe0, 0x00, 0x40, 0x2a, 0x01, 0x00, 0x00, 0x00, 0x00, 0x00, 0x00, 0x30,
   0xc2, 0x0f, 0x00, 0x00, 0x00, 0x00, 0xff, 0x07, 0x00, 0xbe, 0x07, 0x00,
   0x55, 0x1f, 0xe0, 0xff, 0xff, 0x7f, 0xe0, 0x00, 0x40, 0x2a, 0x01, 0x00,
   0x00, 0x00, 0x00, 0x00, 0x00, 0x78, 0xd4, 0x5f, 0x00, 0x00, 0x00, 0x00,
   0xff, 0x55, 0x00, 0xbf, 0x03, 0x00, 0x00, 0x3c, 0xe0, 0x7f, 0x3a, 0xff,
   0x60, 0x00, 0x00, 0x78, 0x05, 0x00, 0x00, 0x00, 0x00, 0x00, 0x00, 0xfc,
   0x00, 0x3f, 0x00, 0x00, 0x00, 0x00, 0x3f, 0x00, 0x00, 0xbf, 0x03, 0x00,
   0x55, 0x3d, 0xf0, 0xff, 0xf0, 0xfc, 0x61, 0x00, 0x00, 0x50, 0x05, 0x00,
   0x00, 0x50, 0x00, 0x00, 0x00, 0xfc, 0x50, 0x7f, 0x01, 0x00, 0x00, 0x00,
   0x7f, 0x05, 0x80, 0xf7, 0x01, 0x00, 0x00, 0x38, 0xf8, 0xff, 0xe0, 0xf3,
   0x23, 0x00, 0x00, 0x40, 0x01, 0x00, 0x00, 0x00, 0x00, 0x00, 0x00, 0x7e,
   0x00, 0x7e, 0x00, 0x00, 0x00, 0x80, 0x7f, 0x00, 0x80, 0xf7, 0x01, 0x00,
   0x55, 0x7d, 0xfc, 0xff, 0xc1, 0x0f, 0x20, 0x00, 0x00, 0x40, 0x01, 0x00,
   0x00, 0x5c, 0x05, 0x00, 0x00, 0x7e, 0x40, 0xfd, 0x01, 0x00, 0x00, 0x80,
   0xff, 0x00, 0xc0, 0xe3, 0x00, 0x00, 0x00, 0x70, 0xff, 0xff, 0x83, 0x3f,
   0x20, 0x00, 0x00, 0x00, 0x01, 0x00, 0x00, 0xe0, 0x00, 0x00, 0x00, 0x3f,
   0x00, 0xf8, 0x01, 0x00, 0x00, 0xc0, 0xf3, 0x00, 0xe0, 0xe1, 0x00, 0x00,
   0x55, 0xf5, 0x5f, 0xff, 0xc3, 0x3e, 0x00, 0x00, 0x00, 0x00, 0x00, 0x00,
   0x00, 0xc0, 0x57, 0x00, 0x80, 0x1f, 0x00, 0xfd, 0x05, 0x00, 0x00, 0xc0,
   0xe3, 0x01, 0xe0, 0x40, 0x00, 0x00, 0x00, 0xe0, 0x07, 0xfe, 0xa7, 0x7f,
   0x00, 0x00, 0x00, 0x00, 0x00, 0x00, 0x00, 0x00, 0x0f, 0x00, 0x80, 0x1f,
   0x00, 0xf0, 0x03, 0x00, 0x10, 0xc0, 0xe1, 0x03, 0xf0, 0x40, 0x00, 0x00,
   0x55, 0xf5, 0x57, 0xfd, 0x9f, 0xf7, 0x00, 0x00, 0x00, 0x00, 0x00, 0x00,
   0x00, 0x00, 0x7c, 0x01, 0xc0, 0x0f, 0x00, 0xf4, 0x17, 0x00, 0x10, 0xe0,
   0xc1, 0x23, 0x78, 0x00, 0x00, 0x00, 0x00, 0xf0, 0x01, 0xf8, 0xbf, 0xe3,
   0x01, 0x00, 0x00, 0x00, 0x00, 0x00, 0x00, 0x00, 0xf0, 0x00, 0xc0, 0x0f,
   0x00, 0xe0, 0x0f, 0x00, 0x10, 0xe0, 0x81, 0x27, 0x78, 0x00, 0x00, 0x00,
   0x55, 0x7d, 0x54, 0xf5, 0xff, 0xc3, 0x03, 0x00, 0x00, 0x00, 0xc0, 0x07,
   0x00, 0x00, 0xe0, 0x05, 0xe0, 0x07, 0x00, 0xd4, 0x5f, 0x00, 0x10, 0xf0,
   0x00, 0x6f, 0x3c, 0x00, 0x00, 0x00, 0x00, 0x3f, 0x00, 0xe0, 0xff, 0x84,
   0x07, 0x00, 0x00, 0x00, 0xc0, 0x07, 0x00, 0x00, 0xc0, 0x03, 0xf0, 0x03,
   0x00, 0x80, 0x1f, 0x00, 0x10, 0xf0, 0x00, 0x6e, 0x1e, 0x00, 0x00, 0x00,
   0xf5, 0x0f, 0x50, 0xf5, 0xbf, 0x10, 0x0e, 0x00, 0x00, 0x00, 0x80, 0x0f,
   0x00, 0x00, 0x80, 0x17, 0xf0, 0x03, 0x00, 0xd0, 0x7f, 0x00, 0x18, 0x78,
   0x00, 0xfc, 0x0e, 0x00, 0x00, 0x00, 0xf8, 0x03, 0x00, 0xc0, 0xff, 0x20,
   0x1c, 0x00, 0x00, 0x00, 0x00, 0x0f, 0x00, 0x00, 0x00, 0x0f, 0xf8, 0x01,
   0x00, 0x00, 0x3f, 0x00, 0x18, 0x38, 0x00, 0xf8, 0x0f, 0x00, 0x00, 0x00,
   0x3d, 0x00, 0x50, 0x95, 0xff, 0x01, 0x38, 0x00, 0x00, 0x00, 0x00, 0x0e,
   0x00, 0x00, 0x00, 0x5e, 0xf8, 0x00, 0x00, 0x50, 0x7f, 0x00, 0x18, 0x3c,
   0x00, 0xf8, 0x07, 0x00, 0x00, 0x00, 0x70, 0x00, 0x00, 0x00, 0xff, 0x03,
   0x74, 0x00, 0x00, 0x00, 0x00, 0x1e, 0x00, 0x00, 0x30, 0x3c, 0x7c, 0x00,
   0x00, 0x00, 0x7f, 0x00, 0x18, 0x1c, 0x00, 0xf0, 0x03, 0x00, 0x00, 0x00,
   0xf5, 0x00, 0x40, 0x55, 0xff, 0x07, 0xc8, 0x00, 0x00, 0x00, 0x00, 0x1c,
   0x00, 0x00, 0xf8, 0x78, 0x7e, 0x00, 0x00, 0x40, 0xff, 0x01, 0x18, 0x1e,
   0x00, 0xe0, 0x01, 0x00, 0x00, 0x00, 0xe0, 0x03, 0x00, 0x00, 0xfc, 0x0f,
   0xd2, 0x01, 0x00, 0x00, 0x00, 0x3c, 0x00, 0x00, 0xf8, 0xf1, 0x3e, 0x00,
   0x00, 0x00, 0xfe, 0x00, 0x1c, 0x0f, 0x00, 0xe0, 0x00, 0x00, 0x00, 0x00,
   0xd5, 0x07, 0x00, 0x55, 0xfd, 0x9f, 0xfe, 0x03, 0x00, 0x00, 0x00, 0x7c,
   0x00, 0x00, 0xf8, 0xe3, 0x1e, 0x00, 0x00, 0x40, 0xff, 0x01, 0x0c, 0x07,
   0x00, 0x40, 0x00, 0x00, 0x00, 0x00, 0x80, 0x1f, 0x00, 0x00, 0xf0, 0x7f,
   0xff, 0x07, 0x00, 0x00, 0x00, 0xfc, 0x00, 0x00, 0xf0, 0xc7, 0x1d, 0x00,
   0x00, 0x00, 0xfe, 0x01, 0x8c, 0x07, 0x00, 0x40, 0x00, 0x00, 0x00, 0x00,
   0x55, 0x7f, 0x00, 0x54, 0xe5, 0xff, 0xfe, 0x0f, 0x00, 0x00, 0x00, 0xfc,
   0x01, 0x00, 0xe0, 0x8f, 0x01, 0x00, 0x00, 0x40, 0xff, 0x07, 0x8e, 0x03,
   0x00, 0x00, 0x00, 0x00, 0x00, 0x00, 0x00, 0xfc, 0x03, 0x00, 0xc0, 0xff,
   0x7f, 0x0f, 0x00, 0x00, 0x00, 0xdc, 0x03, 0x00, 0xe0, 0x0f, 0x00, 0x00,
   0x00, 0x00, 0xde, 0x03, 0xce, 0x01, 0x00, 0x00, 0x00, 0x00, 0x00, 0x00,
   0x55, 0xfd, 0x0f, 0x54, 0xd4, 0xff, 0x7f, 0x1e, 0x00, 0x00, 0x00, 0xdc,
   0x07, 0x00, 0x80, 0x07, 0x00, 0x00, 0x00, 0x00, 0xdf, 0x07, 0xee, 0x01,
   0x00, 0x00, 0x00, 0x00, 0x00, 0x00, 0x00, 0xe0, 0xff, 0xe0, 0x1f, 0xff,
   0x8f, 0x3c, 0x00, 0x00, 0x00, 0x9c, 0x0f, 0x00, 0x00, 0x00, 0x00, 0x00,
   0x00, 0x00, 0x1e, 0x07, 0xff, 0x00, 0x00, 0x00, 0x00, 0x00, 0x00, 0x00,
   0x55, 0x55, 0xff, 0xff, 0x57, 0xfd, 0x1f, 0x78, 0x00, 0x00, 0x00, 0x1c,
   0x3e, 0x00, 0x00, 0x00, 0x00, 0x00, 0x00, 0x00, 0xdf, 0x17, 0x7f, 0x00,
   0x00, 0x00, 0x00, 0x00, 0x00, 0x00, 0x00, 0x00, 0xf8, 0xff, 0x00, 0xf8,
   0x7f, 0xe0, 0x00, 0x00, 0x00, 0x0c, 0xfc, 0x01, 0x00, 0x00, 0x00, 0x00,
   0x00, 0x00, 0xbf, 0x8f, 0x7f, 0x00, 0x00, 0x00, 0x00, 0x00, 0x00, 0x00,
   0x55, 0x55, 0xd5, 0x7f, 0x55, 0xf5, 0xff, 0xc0, 0x01, 0x00, 0x00, 0x1c,
   0xf8, 0x0f, 0x00, 0x00, 0x00, 0x00, 0x00, 0x00, 0xff, 0x9f, 0x3f, 0x00,
   0x00, 0x00, 0x00, 0x00, 0x00, 0x00, 0x00, 0x00, 0x00, 0x3e, 0x00, 0xc0,
   0xff, 0x83, 0x03, 0x00, 0x00, 0x1c, 0xe0, 0x3f, 0x00, 0x00, 0x00, 0x00,
   0x00, 0x00, 0xff, 0x9f, 0x1f, 0x00, 0x00, 0x00, 0x00, 0x00, 0x00, 0x00,
   0x55, 0x55, 0x55, 0x5f, 0x55, 0x95, 0xff, 0x0f, 0x07, 0x00, 0x00, 0x3e,
   0x00, 0x7f, 0x00, 0x00, 0x00, 0x00, 0x00, 0x80, 0xff, 0xdf, 0x0f, 0x00,
   0x00, 0x00, 0x00, 0x00, 0x00, 0x00, 0x00, 0x00, 0x80, 0x0f, 0x00, 0xc0,
   0xff, 0x9f, 0x0c, 0x00, 0x00, 0x36, 0x02, 0x70, 0x00, 0x00, 0x00, 0x00,
   0x00, 0xc0, 0xff, 0xdf, 0x07, 0x00, 0x00, 0x00, 0x00, 0x00, 0x00, 0x00,
   0x55, 0x55, 0xd5, 0x07, 0x55, 0xf5, 0xff, 0xbf, 0x1d, 0x00, 0x00, 0x76,
   0x03, 0xf0, 0x01, 0x00, 0x00, 0x00, 0x00, 0xf0, 0xff, 0xff, 0x03, 0x00,
   0x00, 0x00, 0x00, 0x00, 0x00, 0x00, 0x3f, 0x00, 0xc0, 0x03, 0x00, 0xf8,
   0xff, 0xff, 0x7f, 0x00, 0x00, 0xe6, 0x07, 0xe0, 0x03, 0x00, 0x00, 0x00,
   0x00, 0xff, 0xff, 0xf9, 0x01, 0x00, 0x00, 0x00, 0x00, 0x00, 0x00, 0x00,
   0xff, 0x55, 0xf5, 0x01, 0x55, 0x7d, 0xd5, 0xff, 0xff, 0x00, 0x00, 0xe6,
   0x07, 0xc0, 0x07, 0x00, 0x00, 0xc0, 0xff, 0xff, 0xff, 0xf9, 0x00, 0x00,
   0x00, 0x00, 0x00, 0x00, 0x00, 0x00, 0xff, 0x0f, 0xe0, 0x00, 0x00, 0x1e,
   0x80, 0xff, 0xff, 0x01, 0x00, 0xc7, 0x0e, 0x80, 0x1f, 0x00, 0x00, 0x18,
   0xff, 0xff, 0xff, 0x7b, 0x00, 0x00, 0x00, 0x00, 0x00, 0x00, 0x00, 0x00,
   0xfc, 0x7f, 0x75, 0x00, 0x54, 0x5e, 0xe1, 0xf7, 0xff, 0x03, 0x00, 0x43,
   0x0c, 0x00, 0xff, 0xc1, 0x07, 0x1a, 0xf0, 0xff, 0xfd, 0x3b, 0x00, 0x00,
   0x00, 0x00, 0x00, 0x00, 0x00, 0x00, 0x80, 0xff, 0x78, 0x00, 0x00, 0x0f,
   0xf8, 0xe0, 0xff, 0x07, 0x00, 0x03, 0x3c, 0x00, 0xfc, 0xff, 0x07, 0x92,
   0xf8, 0xff, 0x3d, 0x10, 0x00, 0x00, 0x00, 0x00, 0x00, 0x00, 0x00, 0x00,
   0x00, 0xfc, 0x3f, 0x00, 0x40, 0x57, 0x3c, 0xd5, 0xff, 0x1f, 0x00, 0x03,
   0xf8, 0x00, 0xfe, 0xff, 0x07, 0xb2, 0xd9, 0xff, 0x3f, 0x00, 0x00, 0x00,
   0x00, 0x00, 0x00, 0x00, 0x00, 0x00, 0x00, 0xf0, 0x1f, 0x00, 0x00, 0x03,
   0x0e, 0x00, 0xfe, 0x3f, 0x00, 0x03, 0x00, 0x80, 0xff, 0xff, 0x03, 0xb6,
   0xe5, 0xff, 0x1f, 0x00, 0x00, 0x00, 0x00, 0x00, 0x00, 0x00, 0x00, 0x00,
   0x00, 0xc0, 0x3f, 0x00, 0x00, 0x17, 0x07, 0x50, 0xfd, 0x7f, 0x00, 0x03,
   0x00, 0xe0, 0x3f, 0x80, 0x01, 0xa6, 0x75, 0xff, 0x0f, 0x00, 0x00, 0x00,
   0x00, 0x00, 0x00, 0x00, 0x00, 0x00, 0x00, 0x00, 0xff, 0x00, 0x80, 0x83,
   0x03, 0x00, 0xf8, 0xff, 0x00, 0x07, 0x00, 0xf8, 0x00, 0x00, 0x00, 0xa0,
   0x35, 0xff, 0x0f, 0x00, 0x00, 0x00, 0x00, 0x00, 0x00, 0x00, 0x00, 0x00,
   0x00, 0x00, 0xfc, 0x03, 0xe0, 0x87, 0x01, 0x00, 0xfd, 0xff, 0x01, 0x06,
   0x00, 0x3f, 0x00, 0x00, 0x00, 0xa0, 0x3d, 0xff, 0x07, 0x00, 0x00, 0x00,
   0x00, 0x00, 0x00, 0x00, 0x00, 0x00, 0x00, 0x00, 0xf0, 0x07, 0xf0, 0xc7,
   0x01, 0x00, 0xff, 0xf3, 0x03, 0x0e, 0xe0, 0x07, 0x00, 0x00, 0x00, 0xa0,
   0x29, 0xff, 0x07, 0x00, 0x00, 0x00, 0x00, 0x00, 0x00, 0x00, 0x00, 0x00,
   0x00, 0x00, 0xc0, 0x1f, 0xf0, 0xc7, 0x00, 0x80, 0xdf, 0x07, 0x00, 0xfc,
   0xff, 0x01, 0x00, 0x00, 0x00, 0x80, 0x6d, 0xff, 0x07, 0x00, 0x00, 0x00,
   0x00, 0x00, 0x00, 0x00, 0x00, 0x00, 0x00, 0x00, 0x00, 0x7f, 0x38, 0xec,
   0x00, 0xc0, 0x81, 0x0f, 0x00, 0xf8, 0x3f, 0x00, 0x00, 0x00, 0x00, 0x00,
   0x6d, 0xfe, 0x0f, 0x00, 0x00, 0x00, 0x00, 0x00, 0x00, 0x00, 0x00, 0x00,
   0x00, 0x00, 0x00, 0xfe, 0x78, 0x69, 0x00, 0xe0, 0x40, 0x1f, 0x00, 0x00,
   0x00, 0x00, 0x00, 0x00, 0x00, 0x00, 0x6d, 0xdf, 0x1f, 0x00, 0x00, 0x00,
   0x00, 0x00, 0x00, 0x00, 0x00, 0x00, 0x7f, 0x00, 0x00, 0xf8, 0x1d, 0x60,
   0x00, 0x70, 0x00, 0x3e, 0x00, 0x00, 0x00, 0x00, 0x00, 0x00, 0x00, 0x00,
   0x6c, 0xff, 0x7f, 0x00, 0x00, 0x00, 0x00, 0x00, 0x00, 0x00, 0x00, 0x00,
   0xff, 0x07, 0x00, 0xf0, 0x5f, 0x60, 0x00, 0x38, 0x00, 0x7d, 0x00, 0x00,
   0x00, 0x00, 0x00, 0x00, 0x00, 0x00, 0x84, 0xff, 0xfd, 0x01, 0x00, 0x00,
   0x00, 0x00, 0x00, 0x00, 0x00, 0x00, 0xe0, 0x7f, 0x00, 0xe0, 0x0f, 0x70,
   0x00, 0x18, 0x00, 0x78, 0x00, 0x00, 0x00, 0x00, 0x00, 0x00, 0x00, 0x00,
   0xc0, 0xff, 0xf0, 0x03, 0x00, 0x00, 0x00, 0x00, 0x00, 0x00, 0x00, 0x00,
   0x00, 0xfc, 0x03, 0x80, 0x5f, 0x38, 0x03, 0x1c, 0x00, 0xf0, 0x00, 0x00,
   0x00, 0x00, 0x00, 0x00, 0x00, 0x00, 0xe0, 0xf7, 0xc0, 0x0f, 0x00, 0x00,
   0x00, 0x00, 0x00, 0x00, 0x00, 0x00, 0x00, 0xc0, 0x3f, 0x00, 0x0f, 0x1c,
   0x07, 0x0e, 0x00, 0xe0, 0x01, 0x00, 0x00, 0x00, 0x00, 0x00, 0x00, 0x00,
   0xf0, 0x7f, 0x00, 0x3f, 0x00, 0x00, 0x00, 0x00, 0x00, 0x00, 0x00, 0x00,
   0x00, 0x00, 0xfe, 0x00, 0x5e, 0x0e, 0x0e, 0x06, 0x00, 0xc0, 0x03, 0x00,
   0x00, 0x00, 0x00, 0x00, 0x00, 0x00, 0xf8, 0x7b, 0xe0, 0x1f, 0x00, 0x00,
   0x00, 0x00, 0x00, 0x00, 0x00, 0x00, 0x00, 0x00, 0xe0, 0x07, 0x1e, 0x06,
   0x0c, 0x07, 0x00, 0x80, 0x07, 0x00, 0x00, 0x00, 0x00, 0x00, 0x00, 0x00,
   0xfe, 0x38, 0xfc, 0x07, 0x00, 0x00, 0x00, 0x00, 0x00, 0x00, 0x00, 0x00,
   0x00, 0x00, 0x80, 0x3f, 0x5e, 0x07, 0x00, 0x07, 0x00, 0x80, 0x1f, 0x00,
   0x00, 0x00, 0x00, 0x00, 0x00, 0xc0, 0x7f, 0xfc, 0xff, 0x01, 0x00, 0x00,
   0x00, 0x00, 0x00, 0x00, 0x00, 0x00, 0x00, 0x00, 0x00, 0xfc, 0x3c, 0x03,
   0x00, 0x03, 0x00, 0xc0, 0x7f, 0x00, 0x00, 0x00, 0x00, 0x00, 0x00, 0xfe,
   0x1f, 0xfc, 0x1f, 0x00, 0x00, 0x00, 0x00, 0x00, 0x00, 0x00, 0x00, 0x00,
   0x00, 0x00, 0x00, 0xe0, 0xbf, 0x03, 0x00, 0x03, 0x00, 0xc0, 0xfc, 0x00,
   0x00, 0x00, 0x00, 0x00, 0xf8, 0xff, 0x0f, 0xfe, 0x01, 0x00, 0x00, 0x00,
   0x00, 0x00, 0x00, 0x00, 0x00, 0x00, 0x00, 0x00, 0x00, 0x80, 0xff, 0x01,
   0x00, 0x03, 0x00, 0xe0, 0xf8, 0x03, 0x00, 0x00, 0x00, 0xe0, 0xff, 0xff,
   0x03, 0x3e, 0x00, 0x00, 0x00, 0x00, 0x00, 0x00, 0x00, 0x00, 0x00, 0x00,
   0x00, 0x00, 0x00, 0x00, 0xfe, 0x01, 0x00, 0x03, 0x00, 0x60, 0xf0, 0x7f,
   0x00, 0x00, 0xf0, 0xff, 0xff, 0xff, 0x00, 0x7f, 0x00, 0x00, 0x00, 0x00,
   0x00, 0x00, 0x00, 0x00, 0x00, 0x00, 0x00, 0x00, 0x00, 0x00, 0xf8, 0x03,
   0x80, 0x03, 0x00, 0x70, 0xc0, 0xff, 0xff, 0xff, 0xff, 0xff, 0xff, 0xff,
   0x00, 0xff, 0x00, 0x00, 0x00, 0x00, 0x00, 0x00, 0x00, 0x00, 0x00, 0x00,
   0x00, 0x00, 0x00, 0x00, 0xe0, 0x03, 0xc0, 0x01, 0x00, 0x38, 0x00, 0xff,
   0xff, 0xff, 0xff, 0xff, 0xff, 0xfb, 0x00, 0xef, 0x00, 0x00, 0x00, 0x00,
   0x00, 0x00, 0x00, 0x00, 0x00, 0x00, 0x00, 0x00, 0x00, 0x00, 0xc0, 0x07,
   0xe0, 0xe0, 0x00, 0x1c, 0x00, 0xf8, 0xff, 0xff, 0xff, 0xff, 0xff, 0xfb,
   0x80, 0xc7, 0x01, 0x00, 0x00, 0x00, 0x00, 0x00, 0x00, 0x78, 0x00, 0x00,
   0x00, 0x00, 0x00, 0x00, 0xe0, 0x0f, 0x70, 0xc0, 0x01, 0x0c, 0x00, 0x18,
   0xf0, 0x54, 0xf5, 0xff, 0x9f, 0xf1, 0x80, 0xcf, 0x03, 0x00, 0x00, 0x00,
   0x00, 0x00, 0x80, 0x3f, 0x00, 0x00, 0x00, 0x00, 0x00, 0x00, 0xf8, 0x1f,
   0x30, 0xc0, 0x07, 0x06, 0x00, 0x18, 0xe0, 0x01, 0x00, 0xff, 0x2b, 0xf1,
   0xc1, 0xff, 0x07, 0x00, 0x00, 0x00, 0x00, 0x00, 0xff, 0x1f, 0x00, 0x00,
   0x00, 0x00, 0x00, 0x00, 0x3c, 0x3e, 0x38, 0x80, 0x0f, 0x07, 0x00, 0x18,
   0xf4, 0x55, 0x55, 0xff, 0x4f, 0xe2, 0xc1, 0xff, 0x0f, 0x00, 0x00, 0x00,
   0x00, 0xfc, 0xff, 0x1f, 0x00, 0x00, 0x00, 0x40, 0x00, 0x00, 0x0e, 0x7c,
   0x1c, 0x00, 0x9e, 0x03, 0x00, 0x0c, 0xe0, 0x01, 0x00, 0xfc, 0x9f, 0xc0,
   0xe3, 0x01, 0x00, 0x00, 0x00, 0x00, 0xf8, 0xff, 0x7f, 0x0c, 0x00, 0x00,
   0x00, 0x75, 0x00, 0x00, 0x07, 0xf8, 0x0c, 0x00, 0xfc, 0x01, 0x00, 0x0c,
   0xf4, 0x55, 0x55, 0xfd, 0x3f, 0x80, 0xe7, 0x01, 0x00, 0x00, 0x00, 0x80,
   0xff, 0xff, 0x55, 0x0f, 0x00, 0x00, 0x00, 0x38, 0x00, 0x80, 0x03, 0xf0,
   0x0f, 0x00, 0xf0, 0x01, 0x00, 0x0e, 0xe0, 0x00, 0x00, 0xf0, 0x7f, 0xa0,
   0xef, 0x01, 0x00, 0x00, 0x00, 0xf8, 0xff, 0x03, 0x00, 0x7f, 0x00, 0x00,
   0x54, 0x1f, 0x00, 0xc0, 0x01, 0xe0, 0x07, 0x00, 0xe0, 0x03, 0x00, 0x07,
   0xf5, 0x55, 0x55, 0xe5, 0xff, 0x10, 0xff, 0x00, 0x00, 0x00, 0xc0, 0xff,
   0x5f, 0x55, 0xd5, 0xff, 0x0f, 0x00, 0xc0, 0x0f, 0x00, 0xf0, 0x00, 0xc0,
   0x07, 0x00, 0xe0, 0x07, 0x00, 0x03, 0xf0, 0x00, 0x00, 0xc0, 0xff, 0xd9,
   0xff, 0x00, 0x00, 0x00, 0xfc, 0xff, 0x01, 0x00, 0x00, 0xfe, 0x7f, 0x00,
   0xfd, 0x17, 0x00, 0x78, 0x00, 0x80, 0x0f, 0x00, 0x70, 0x06, 0x80, 0x03,
   0x75, 0x55, 0x55, 0x01, 0xff, 0xff, 0xff, 0x00, 0x00, 0xe0, 0xff, 0x5f,
   0x55, 0x55, 0x55, 0xd5, 0xff, 0x03, 0xff, 0x03, 0x00, 0x1c, 0x00, 0x00,
   0x1e, 0x00, 0x30, 0x00, 0xc0, 0x01, 0x78, 0x00, 0x00, 0x00, 0xfe, 0xff,
   0xff, 0x00, 0x00, 0xff, 0xff, 0x01, 0x00, 0x00, 0x00, 0x00, 0xfc, 0x01,
   0xff, 0x01, 0x00, 0x0e, 0x00, 0x00, 0x3c, 0x00, 0x30, 0x00, 0xe0, 0x40,
   0x7d, 0xd5, 0x15, 0x00, 0xf8, 0x7f, 0xfa, 0x01, 0xfe, 0xff, 0x5f, 0x55,
   0x55, 0x55, 0x55, 0x55, 0xfd, 0x00, 0x7f, 0x00, 0x00, 0x07, 0x00, 0x00,
   0xf8, 0x00, 0x30, 0x00, 0x70, 0x00, 0x1e, 0x00, 0x03, 0x00, 0xf8, 0xbf,
   0xf0, 0xff, 0xff, 0xff, 0x00, 0x00, 0x00, 0x00, 0x00, 0x00, 0x7f, 0x00,
   0x5f, 0x00, 0x80, 0x03, 0x00, 0x00, 0xf0, 0x01, 0x38, 0x00, 0x38, 0xc0,
   0x5f, 0x55, 0x07, 0x00, 0xf8, 0x3f, 0xc0, 0xff, 0xff, 0x57, 0x55, 0x55,
   0x55, 0x55, 0x55, 0xf5, 0x3f, 0x00, 0x07, 0x00, 0xc0, 0x01, 0x00, 0x00,
   0xf0, 0x03, 0x18, 0x00, 0x38, 0xff, 0x07, 0x00, 0x06, 0x00, 0xf0, 0xff,
   0x80, 0xff, 0x7f, 0x00, 0x00, 0x00, 0x00, 0x00, 0x00, 0xe0, 0x07, 0x00,
   0x15, 0x00, 0xe0, 0x00, 0x00, 0x00, 0xb8, 0x0f, 0x1c, 0x00, 0x38, 0xfe,
   0x57, 0x05, 0x0e, 0x00, 0x70, 0xfe, 0x07, 0xfe, 0x57, 0x55, 0x55, 0x55,
   0x55, 0x55, 0x55, 0xd5, 0x07, 0x00, 0x00, 0x00, 0x70, 0x00, 0x00, 0x00,
   0x1c, 0x1f, 0x0c, 0x00, 0x38, 0xe0, 0x03, 0x00, 0x0e, 0x00, 0x70, 0xfe,
   0x0f, 0x78, 0x00, 0x00, 0x00, 0x00, 0x00, 0x00, 0x00, 0x00, 0x0f, 0x00,
   0x05, 0x00, 0x38, 0x00, 0x00, 0x00, 0x0e, 0x7c, 0x0e, 0x00, 0x38, 0xd0,
   0x15, 0x00, 0x1e, 0x00, 0xf8, 0xff, 0x3f, 0xe2, 0x55, 0x55, 0x55, 0x55,
   0x55, 0x55, 0x55, 0x55, 0x1f, 0x00, 0x00, 0x00, 0x1c, 0x00, 0x00, 0x00,
   0x07, 0xf0, 0x07, 0x00, 0x38, 0xc0, 0x00, 0x00, 0x1e, 0x00, 0xf8, 0xbf,
   0xff, 0xee, 0x01, 0x00, 0x00, 0x00, 0x00, 0x00, 0x00, 0x00, 0x1c, 0x00,
   0x01, 0x00, 0x0f, 0x00, 0x00, 0x80, 0x03, 0xe0, 0x03, 0x00, 0x18, 0xd0,
   0x01, 0x00, 0x1e, 0x00, 0xfc, 0x3f, 0xfe, 0xff, 0x57, 0x55, 0x55, 0x55,
   0x55, 0x55, 0x55, 0x55, 0x3d, 0x00, 0x00, 0x80, 0x07, 0x00, 0x00, 0x80,
   0x01, 0x80, 0x0f, 0x00, 0x18, 0xc0, 0x03, 0x00, 0x1e, 0x00, 0xfc, 0x3d,
   0xfe, 0xff, 0x07, 0x00, 0x00, 0x00, 0x00, 0x00, 0x00, 0x00, 0x38, 0x00,
   0x00, 0xc0, 0x01, 0x00, 0x00, 0xc0, 0x01, 0x00, 0x3f, 0x00, 0x1c, 0xf4,
   0x0f, 0x00, 0x1e, 0x00, 0x5e, 0x3d, 0xdf, 0xff, 0x5f, 0x55, 0x55, 0x55,
   0x55, 0x55, 0x55, 0xf5, 0x7f, 0x00, 0x00, 0xf0, 0x00, 0x00, 0x00, 0xe0,
   0x00, 0x00, 0xfc, 0x01, 0x0c, 0xe0, 0x3f, 0x00, 0x1e, 0x00, 0x1e, 0x3c,
   0x07, 0xfc, 0x1f, 0x00, 0x00, 0x00, 0x00, 0x00, 0x00, 0xe0, 0x7f, 0x00,
   0x00, 0x78, 0x00, 0x00, 0x00, 0x70, 0x00, 0x00, 0xf8, 0x1f, 0x47, 0xf5,
   0x7f, 0x00, 0x1e, 0x00, 0x5e, 0x3d, 0x57, 0xd5, 0x5f, 0x55, 0x55, 0x55,
   0x55, 0x55, 0x55, 0xd5, 0xff, 0x00, 0x00, 0x1e, 0x00, 0x00, 0x00, 0x38,
   0x00, 0x00, 0xe0, 0xff, 0x07, 0xfe, 0xff, 0x01, 0x3f, 0x00, 0x1f, 0x78,
   0x07, 0x00, 0x00, 0x00, 0x00, 0x00, 0x00, 0x00, 0x00, 0x80, 0xf3, 0x00,
   0x00, 0x0f, 0x00, 0x00, 0x00, 0x1c, 0x00, 0x00, 0x60, 0xfe, 0xff, 0xff,
   0xff, 0x03, 0x3f, 0x00, 0x5f, 0x7d, 0x57, 0x55, 0x55, 0x55, 0x55, 0x55,
   0x55, 0x55, 0x55, 0xd5, 0x03, 0x01, 0xc0, 0x03, 0x00, 0x00, 0x00, 0x0c,
   0x00, 0x00, 0x60, 0xf8, 0xff, 0x3f, 0xff, 0x0f, 0x3f, 0x00, 0x0f, 0xf8,
   0x03, 0x00, 0x00, 0x00, 0x00, 0x00, 0x00, 0x00, 0x00, 0x00, 0x07, 0x00,
   0xe0, 0x01, 0x00, 0x00, 0x00, 0x0e, 0x00, 0x00, 0x70, 0x00, 0xff, 0x1f,
   0xf0, 0x9f, 0x7f, 0x00, 0x5f, 0xf5, 0x57, 0x55, 0x55, 0x55, 0x55, 0x55,
   0x55, 0x55, 0x55, 0x55, 0x07, 0x00, 0x78, 0x00, 0x80, 0x07, 0x00, 0x07,
   0x00, 0x00, 0x70, 0x00, 0x70, 0x3c, 0xc0, 0xff, 0xf9, 0x00, 0x0f, 0xf0,
   0x01, 0x00, 0x00, 0x00, 0x00, 0x00, 0x00, 0x00, 0x00, 0x00, 0x0f, 0x00,
   0x3c, 0x00, 0x80, 0x1f, 0x80, 0x03, 0x00, 0x00, 0x30, 0x00, 0x60, 0xf0,
   0x00, 0xff, 0xf9, 0x00, 0x5f, 0xf5, 0x55, 0x55, 0x55, 0x55, 0x55, 0x55,
   0x55, 0x55, 0x55, 0x55, 0x0f, 0x00, 0x0f, 0x00, 0x00, 0x7e, 0xc0, 0x03,
   0x00, 0x00, 0x30, 0x00, 0x60, 0xc0, 0x01, 0xfc, 0xf1, 0x01, 0x0f, 0xe0,
   0x01, 0x00, 0x00, 0x00, 0x00, 0x00, 0x00, 0x00, 0x00, 0x00, 0x0f, 0x00,
   0x07, 0x00, 0x00, 0xfc, 0xe1, 0x07, 0x00, 0x00, 0x30, 0x00, 0x60, 0x80,
   0x03, 0xf8, 0xe7, 0x03, 0x5f, 0xd5, 0x55, 0x55, 0x55, 0x55, 0x55, 0x55,
   0x55, 0x55, 0x55, 0x55, 0x0f, 0x00, 0x01, 0x00, 0x00, 0xf0, 0x77, 0x1e,
   0x00, 0x00, 0x38, 0x00, 0x60, 0x00, 0x07, 0xe0, 0xcf, 0x07, 0x0f, 0xc0,
   0x00, 0x00, 0x00, 0x00, 0x00, 0x00, 0x00, 0x00, 0x00, 0x00, 0x1e, 0x00,
   0x00, 0x00, 0x00, 0xe0, 0x3f, 0x3c, 0x00, 0x00, 0x18, 0x00, 0x60, 0x00,
   0x1e, 0xc0, 0x9f, 0x0f, 0x5e, 0xd5, 0x55, 0x55, 0x55, 0x55, 0x55, 0x55,
   0x55, 0x55, 0x55, 0x55, 0x1f, 0x00, 0x00, 0x00, 0x00, 0x80, 0x7f, 0x78,
   0x00, 0x00, 0x18, 0x00, 0x60, 0x00, 0x3c, 0x80, 0x7f, 0x1f, 0x0e, 0x00,
   0x00, 0x00, 0x00, 0x00, 0x00, 0x00, 0x00, 0x00, 0x00, 0x00, 0x1c, 0x00,
   0x00, 0x00, 0x00, 0x00, 0xff, 0xf0, 0x00, 0x00, 0x18, 0x00, 0x60, 0x00,
   0x38, 0x00, 0xff, 0x3e, 0x5c, 0x55, 0x55, 0x55, 0x55, 0x55, 0x55, 0x55,
   0x55, 0x55, 0x55, 0x55, 0x1d, 0x00, 0x00, 0x00, 0x00, 0x00, 0xff, 0xe3,
   0x01, 0x00, 0x1c, 0x00, 0x60, 0x00, 0xf0, 0x00, 0xfc, 0xfd, 0x1c, 0x00,
   0x07, 0x00, 0x00, 0x00, 0x00, 0x00, 0x00, 0x00, 0x00, 0x00, 0x3c, 0x00,
   0x00, 0xe0, 0x03, 0x80, 0xfb, 0xcf, 0x03, 0x00, 0x0c, 0x00, 0x60, 0x00,
   0xe0, 0x01, 0xf8, 0xf7, 0x5b, 0x55, 0x57, 0x55, 0x55, 0x55, 0x55, 0x55,
   0x55, 0x55, 0x55, 0x5f, 0x3d, 0x00, 0x00, 0xe0, 0x0f, 0xc0, 0xf1, 0xbf,
   0x0f, 0x00, 0x0c, 0x00, 0x60, 0x00, 0x80, 0x01, 0xf0, 0xc7, 0x3f, 0x80,
   0x03, 0x00, 0x00, 0x00, 0x00, 0x00, 0x00, 0x00, 0x00, 0x1c, 0x3c, 0x00,
   0x00, 0xc0, 0xff, 0xe0, 0xe0, 0xff, 0x1f, 0x00, 0x0c, 0x00, 0x60, 0x00,
   0x80, 0x03, 0xe0, 0x57, 0x7f, 0xd5, 0x55, 0x55, 0x55, 0x55, 0x55, 0x55,
   0x55, 0x55, 0x55, 0x5d, 0x3d, 0x00, 0x00, 0x80, 0xff, 0x77, 0x80, 0xef,
   0x3f, 0x00, 0x0e, 0x00, 0x60, 0x00, 0x00, 0x07, 0xc0, 0x0f, 0x7c, 0x80,
   0x01, 0x00, 0x00, 0x00, 0x00, 0x00, 0x00, 0x00, 0x00, 0x18, 0x38, 0x00,
   0x00, 0x00, 0xfe, 0x3f, 0x00, 0x9f, 0x7f, 0x00, 0x06, 0x00, 0x60, 0x00,
   0x00, 0x0e, 0x80, 0x5f, 0xf5, 0xd5, 0x55, 0x55, 0x55, 0x55, 0x55, 0x55,
   0x55, 0x55, 0x55, 0x7d, 0x7d, 0x00, 0x00, 0x00, 0xfc, 0xff, 0x00, 0x3e,
   0xfc, 0x00, 0x06, 0x00, 0x60, 0x00, 0x00, 0x1c, 0x00, 0x3e, 0x00, 0x80,
   0x03, 0x00, 0x00, 0x00, 0x00, 0x00, 0x00, 0x00, 0x00, 0x38, 0x78, 0x00,
   0x00, 0x00, 0xf0, 0xff, 0x03, 0xf8, 0xf8, 0x01, 0x07, 0x00, 0x60, 0x00,
   0x00, 0x18, 0x00, 0x7e, 0x55, 0x55, 0x57, 0x55, 0x55, 0x55, 0x55, 0x55,
   0x55, 0x55, 0x55, 0x7d, 0x75, 0x00, 0x00, 0x00, 0xc0, 0xff, 0x1f, 0xf0,
   0xe1, 0x03, 0x03, 0x00, 0x60, 0x00, 0x00, 0x38, 0x00, 0x7c, 0x00, 0x00,
   0x06, 0x00, 0x00, 0x00, 0x80, 0xff, 0x80, 0x0f, 0x00, 0x38, 0x70, 0x00,
   0x00, 0x00, 0x80, 0xff, 0x7f, 0xc0, 0x87, 0x07, 0x03, 0x00, 0x60, 0x20,
   0x00, 0x70, 0x00, 0xf8, 0x55, 0x55, 0x5f, 0x55, 0x55, 0x55, 0xd5, 0xff,
   0xf7, 0x7f, 0x55, 0x7d, 0xf5, 0x00, 0x00, 0x00, 0xc0, 0xff, 0xfc, 0x83,
   0x1f, 0x86, 0x03, 0x00, 0x70, 0x20, 0x00, 0xe0, 0x00, 0xf0, 0x00, 0x00,
   0x0c, 0x00, 0x00, 0x00, 0xe0, 0xcf, 0xff, 0x7f, 0x00, 0x38, 0xf0, 0x00,
   0x00, 0x00, 0xe0, 0xf0, 0xf3, 0x0f, 0x3e, 0x80, 0x01, 0x00, 0x30, 0x20,
   0x00, 0xc0, 0x00, 0xe0, 0x55, 0x55, 0x5d, 0x55, 0x55, 0x55, 0xf5, 0x01,
   0xff, 0xf0, 0x55, 0x5d, 0xf5, 0x00, 0x00, 0x00, 0xe0, 0xe0, 0x8f, 0x7f,
   0xfc, 0x80, 0x01, 0x00, 0x30, 0x60, 0x00, 0xc0, 0x01, 0xe0, 0x03, 0x00,
   0x18, 0x03, 0x00, 0xe0, 0xfb, 0x00, 0x3e, 0xe0, 0x00, 0x18, 0xe0, 0x00,
   0x00, 0x00, 0xf0, 0x87, 0x3f, 0xfe, 0xfb, 0xc1, 0x01, 0x00, 0x30, 0x60,
   0x00, 0x80, 0x03, 0xc0, 0x57, 0x55, 0x7d, 0x77, 0x55, 0xf5, 0x7f, 0x00,
   0x1e, 0xc0, 0xd5, 0x5d, 0xf5, 0x00, 0x00, 0x00, 0xf8, 0x3f, 0x7e, 0xf0,
   0xff, 0xc3, 0x00, 0x00, 0x30, 0xe0, 0x00, 0x00, 0x03, 0x80, 0x07, 0x00,
   0xb0, 0x3f, 0x00, 0xfc, 0x3f, 0x00, 0x1e, 0xc0, 0x81, 0x3b, 0xe0, 0x01,
   0x00, 0x00, 0xdc, 0xff, 0xf9, 0xc1, 0xff, 0xef, 0x00, 0x00, 0x30, 0xe0,
   0x01, 0x00, 0x07, 0x00, 0x5f, 0x55, 0xf5, 0x5f, 0x55, 0x3f, 0x1e, 0x00,
   0x1c, 0x80, 0xd7, 0x77, 0xf5, 0x01, 0x00, 0x00, 0x8e, 0xff, 0xef, 0x03,
   0xfe, 0x7f, 0x00, 0x00, 0x30, 0xe0, 0x00, 0x00, 0x0e, 0x00, 0x1f, 0x00,
   0xf0, 0x1d, 0x00, 0x1f, 0x1e, 0x00, 0x1c, 0x80, 0xb3, 0x3f, 0xe0, 0x01,
   0x00, 0x00, 0x07, 0xef, 0xff, 0x0f, 0xe0, 0x7f, 0x00, 0x00, 0x30, 0xe0,
   0x01, 0x00, 0x0c, 0x00, 0x5e, 0x55, 0xf5, 0x55, 0xd5, 0x0f, 0x1c, 0x00,
   0x1c, 0x80, 0xf7, 0x7d, 0xf5, 0x01, 0x00, 0x80, 0x03, 0x1e, 0xff, 0x3f,
   0x00, 0x7f, 0x00, 0x00, 0x30, 0xe0, 0x01, 0x00, 0x1c, 0x00, 0x3e, 0x00,
   0x60, 0x00, 0xc0, 0x03, 0x1c, 0x00, 0x1c, 0x80, 0xff, 0x39, 0xe0, 0x01,
   0x00, 0xc0, 0x01, 0x78, 0xf8, 0x3f, 0x00, 0xfc, 0x00, 0x00, 0x70, 0xf0,
   0x05, 0x00, 0x38, 0x00, 0x7c, 0x55, 0x75, 0x55, 0xf5, 0x01, 0x1c, 0x00,
   0x1c, 0x00, 0xff, 0x55, 0xf5, 0x01, 0x00, 0xe0, 0x00, 0xf0, 0xc0, 0x7f,
   0x00, 0xf8, 0x00, 0x00, 0x70, 0xe0, 0x03, 0x00, 0x30, 0x00, 0x7c, 0x00,
   0x00, 0x00, 0xf0, 0x01, 0x1c, 0x00, 0x1c, 0x00, 0xff, 0x03, 0xc0, 0x03,
   0x00, 0x70, 0x00, 0xc0, 0x00, 0x7e, 0x00, 0x18, 0x00, 0x00, 0x60, 0xd0,
   0x07, 0x00, 0x70, 0x00, 0x78, 0x55, 0x55, 0x55, 0xfd, 0x00, 0x1c, 0x00,
   0x1c, 0x00, 0xc7, 0x57, 0xd5, 0x03, 0x00, 0x38, 0x00, 0x00, 0x00, 0x60,
   0x00, 0x18, 0x00, 0x00, 0x60, 0xc0, 0x03, 0x00, 0x60, 0x00, 0xf0, 0x00,
   0x00, 0x00, 0x78, 0x00, 0x1c, 0x00, 0x1c, 0x80, 0x87, 0x07, 0xc0, 0x03,
   0x00, 0x1c, 0x00, 0x00, 0x00, 0x00, 0x00, 0x1c, 0x00, 0x00, 0x60, 0xd0,
   0x17, 0x00, 0xe0, 0x00, 0xf0, 0x55, 0x55, 0x55, 0x7d, 0x00, 0x1c, 0x00,
   0x1e, 0x80, 0x07, 0x57, 0xd5, 0x03, 0x00, 0x0e, 0x00, 0x00, 0x00, 0x00,
   0x00, 0x0c, 0x00, 0x00, 0x60, 0x80, 0x07, 0x00, 0xc0, 0x01, 0xe0, 0x01,
   0x00, 0x00, 0x1c, 0x00, 0x1c, 0x00, 0x0e, 0x80, 0x07, 0x0e, 0xc0, 0x03,
   0x00, 0x07, 0x00, 0x00, 0x00, 0x00, 0x00, 0x0e, 0x00, 0x00, 0x60, 0xd0,
   0x5f, 0x00, 0x80, 0x01, 0xe0, 0x55, 0x55, 0x55, 0x5f, 0x00, 0x1e, 0x00,
   0x0e, 0x80, 0x03, 0x5e, 0xd5, 0x03, 0x80, 0x03, 0x00, 0x00, 0x00, 0x00,
   0x00, 0x06, 0x00, 0x00, 0xe0, 0x80, 0x0f, 0x00, 0x80, 0x01, 0xe0, 0x01,
   0x00, 0x00, 0x1e, 0x00, 0x0e, 0x00, 0x0e, 0x80, 0x03, 0x0e, 0xc0, 0x03,
   0xc0, 0x01, 0x00, 0x00, 0x00, 0x00, 0x00, 0x07, 0x00, 0x00, 0xc0, 0xd0,
   0x5f, 0x01, 0x80, 0x03, 0xc0, 0x57, 0x55, 0x55, 0x5f, 0x00, 0x0e, 0x00,
   0x07, 0x80, 0x03, 0x5e, 0xd5, 0x03, 0xe0, 0x00, 0x00, 0x00, 0x00, 0x00,
   0x00, 0x03, 0x00, 0x00, 0xc0, 0x80, 0x3f, 0x00, 0x00, 0x03, 0xc0, 0x03,
   0x00, 0x00, 0x0f, 0x00, 0x06, 0x80, 0x07, 0xc0, 0x01, 0x0e, 0xc0, 0x03 };
